<svg width="1163" height="711" xmlns="http://www.w3.org/2000/svg"><g><path d="M-24.37979224137962,-55.4700365010649L-65.01187548972666,58.71528069488704L111.39330483041704,42.076161839067936Z" fill="#fafafa" stroke="#fafafa"/><path d="M-24.37979224137962,-55.4700365010649L111.39330483041704,42.076161839067936L64.6101476624608,-91.86840567737818Z" fill="#f8f8f8" stroke="#f8f8f8"/><path d="M64.6101476624608,-91.86840567737818L111.39330483041704,42.076161839067936L262.33487715013325,-70.23106927983463Z" fill="#f0f0f0" stroke="#f0f0f0"/><path d="M64.6101476624608,-91.86840567737818L262.33487715013325,-70.23106927983463L409.0172676835209,-91.6559109929949Z" fill="#e9e9e9" stroke="#e9e9e9"/><path d="M64.6101476624608,-91.86840567737818L409.0172676835209,-91.6559109929949L724.4278358481824,-94.85406867228448Z" fill="#dcdcdc" stroke="#dcdcdc"/><path d="M262.33487715013325,-70.23106927983463L111.39330483041704,42.076161839067936L188.07405615225434,77.6745496597141Z" fill="#ededed" stroke="#ededed"/><path d="M262.33487715013325,-70.23106927983463L188.07405615225434,77.6745496597141L391.37233254499733,88.16317322663963Z" fill="#e6e6e6" stroke="#e6e6e6"/><path d="M262.33487715013325,-70.23106927983463L391.37233254499733,88.16317322663963L409.0172676835209,-91.6559109929949Z" fill="#e0e0e0" stroke="#e0e0e0"/><path d="M409.0172676835209,-91.6559109929949L391.37233254499733,88.16317322663963L495.9435355011374,-21.600668393075466Z" fill="#d9d9d9" stroke="#d9d9d9"/><path d="M409.0172676835209,-91.6559109929949L495.9435355011374,-21.600668393075466L724.4278358481824,-94.85406867228448Z" fill="#cecece" stroke="#cecece"/><path d="M495.9435355011374,-21.600668393075466L391.37233254499733,88.16317322663963L568.5971133224666,37.452336782589555Z" fill="#d3d3d3" stroke="#d3d3d3"/><path d="M495.9435355011374,-21.600668393075466L568.5971133224666,37.452336782589555L724.4278358481824,-94.85406867228448Z" fill="#c9c9c9" stroke="#c9c9c9"/><path d="M724.4278358481824,-94.85406867228448L568.5971133224666,37.452336782589555L722.9973632935435,24.957339679822326Z" fill="#c0c0c0" stroke="#c0c0c0"/><path d="M724.4278358481824,-94.85406867228448L722.9973632935435,24.957339679822326L821.0670410748571,-53.44164999201894Z" fill="#b6b6b6" stroke="#b6b6b6"/><path d="M724.4278358481824,-94.85406867228448L821.0670410748571,-53.44164999201894L941.8188958615065,-33.76157579943538Z" fill="#aeaeae" stroke="#aeaeae"/><path d="M724.4278358481824,-94.85406867228448L941.8188958615065,-33.76157579943538L1257.7736066747457,-66.56621580943465Z" fill="#9d9d9d" stroke="#9d9d9d"/><path d="M821.0670410748571,-53.44164999201894L722.9973632935435,24.957339679822326L824.4058971852064,123.6461572162807Z" fill="#b1b1b1" stroke="#b1b1b1"/><path d="M821.0670410748571,-53.44164999201894L824.4058971852064,123.6461572162807L933.157048439607,23.372059352695942Z" fill="#a9a9a9" stroke="#a9a9a9"/><path d="M821.0670410748571,-53.44164999201894L933.157048439607,23.372059352695942L941.8188958615065,-33.76157579943538Z" fill="#a6a6a6" stroke="#a6a6a6"/><path d="M941.8188958615065,-33.76157579943538L933.157048439607,23.372059352695942L1163.981720712036,63.052486376836896Z" fill="#989898" stroke="#989898"/><path d="M941.8188958615065,-33.76157579943538L1163.981720712036,63.052486376836896L1179.5159239601344,-29.524679146707058Z" fill="#8f8f8f" stroke="#8f8f8f"/><path d="M941.8188958615065,-33.76157579943538L1179.5159239601344,-29.524679146707058L1257.7736066747457,-66.56621580943465Z" fill="#8b8b8b" stroke="#8b8b8b"/><path d="M1179.5159239601344,-29.524679146707058L1163.981720712036,63.052486376836896L1263.522653952241,94.79114620015025Z" fill="#818181" stroke="#818181"/><path d="M1179.5159239601344,-29.524679146707058L1263.522653952241,94.79114620015025L1257.7736066747457,-66.56621580943465Z" fill="#808080" stroke="#808080"/><path d="M1257.7736066747457,-66.56621580943465L1263.522653952241,94.79114620015025L1287.844552891329,353.0627187062055Z" fill="#7b7b7b" stroke="#7b7b7b"/><path d="M-65.01187548972666,58.71528069488704L-118.08730621822178,213.3012374304235L117.5859643612057,191.22664385475218Z" fill="#f8f8f8" stroke="#f8f8f8"/><path d="M-65.01187548972666,58.71528069488704L117.5859643612057,191.22664385475218L111.39330483041704,42.076161839067936Z" fill="#f4f4f4" stroke="#f4f4f4"/><path d="M111.39330483041704,42.076161839067936L117.5859643612057,191.22664385475218L188.07405615225434,77.6745496597141Z" fill="#ededed" stroke="#ededed"/><path d="M188.07405615225434,77.6745496597141L117.5859643612057,191.22664385475218L264.88897603936493,220.16787850297987Z" fill="#e8e8e8" stroke="#e8e8e8"/><path d="M188.07405615225434,77.6745496597141L264.88897603936493,220.16787850297987L391.37233254499733,88.16317322663963Z" fill="#e2e2e2" stroke="#e2e2e2"/><path d="M391.37233254499733,88.16317322663963L264.88897603936493,220.16787850297987L424.9143803771585,175.509431110695Z" fill="#dadada" stroke="#dadada"/><path d="M391.37233254499733,88.16317322663963L424.9143803771585,175.509431110695L568.5971133224666,37.452336782589555Z" fill="#d2d2d2" stroke="#d2d2d2"/><path d="M568.5971133224666,37.452336782589555L424.9143803771585,175.509431110695L516.0576172638685,254.84665375202894Z" fill="#cdcdcd" stroke="#cdcdcd"/><path d="M568.5971133224666,37.452336782589555L516.0576172638685,254.84665375202894L668.6918576806784,270.8121263422072Z" fill="#c2c2c2" stroke="#c2c2c2"/><path d="M568.5971133224666,37.452336782589555L668.6918576806784,270.8121263422072L722.9973632935435,24.957339679822326Z" fill="#bfbfbf" stroke="#bfbfbf"/><path d="M722.9973632935435,24.957339679822326L668.6918576806784,270.8121263422072L824.4058971852064,123.6461572162807Z" fill="#b4b4b4" stroke="#b4b4b4"/><path d="M824.4058971852064,123.6461572162807L668.6918576806784,270.8121263422072L827.2466365434229,235.06768707185984Z" fill="#a8a8a8" stroke="#a8a8a8"/><path d="M824.4058971852064,123.6461572162807L827.2466365434229,235.06768707185984L989.1810438316315,269.96614183299243Z" fill="#9c9c9c" stroke="#9c9c9c"/><path d="M824.4058971852064,123.6461572162807L989.1810438316315,269.96614183299243L933.157048439607,23.372059352695942Z" fill="#9f9f9f" stroke="#9f9f9f"/><path d="M933.157048439607,23.372059352695942L989.1810438316315,269.96614183299243L1163.981720712036,63.052486376836896Z" fill="#929292" stroke="#929292"/><path d="M1163.981720712036,63.052486376836896L989.1810438316315,269.96614183299243L1154.96505911462,215.08978170342743Z" fill="#878787" stroke="#878787"/><path d="M1163.981720712036,63.052486376836896L1154.96505911462,215.08978170342743L1263.522653952241,94.79114620015025Z" fill="#7f7f7f" stroke="#7f7f7f"/><path d="M1263.522653952241,94.79114620015025L1154.96505911462,215.08978170342743L1267.2626900486648,201.8146686628461Z" fill="#7a7a7a" stroke="#7a7a7a"/><path d="M1263.522653952241,94.79114620015025L1267.2626900486648,201.8146686628461L1287.844552891329,353.0627187062055Z" fill="#737373" stroke="#737373"/><path d="M-118.08730621822178,213.3012374304235L-125.31747073866427,492.6195385493338L-30.001219818368554,396.8046901188791Z" fill="#d6d6d6" stroke="#d6d6d6"/><path d="M-118.08730621822178,213.3012374304235L-30.001219818368554,396.8046901188791L117.5859643612057,191.22664385475218Z" fill="#e6e6e6" stroke="#e6e6e6"/><path d="M117.5859643612057,191.22664385475218L-30.001219818368554,396.8046901188791L132.40807523019612,360.05997570231557Z" fill="#d7d7d7" stroke="#d7d7d7"/><path d="M117.5859643612057,191.22664385475218L132.40807523019612,360.05997570231557L264.88897603936493,220.16787850297987Z" fill="#dadada" stroke="#dadada"/><path d="M264.88897603936493,220.16787850297987L132.40807523019612,360.05997570231557L233.42080648988485,391.4124812465161Z" fill="#cbcbcb" stroke="#cbcbcb"/><path d="M264.88897603936493,220.16787850297987L233.42080648988485,391.4124812465161L405.8594700973481,398.5111874062568Z" fill="#c2c2c2" stroke="#c2c2c2"/><path d="M264.88897603936493,220.16787850297987L405.8594700973481,398.5111874062568L424.9143803771585,175.509431110695Z" fill="#c9c9c9" stroke="#c9c9c9"/><path d="M424.9143803771585,175.509431110695L405.8594700973481,398.5111874062568L516.0576172638685,254.84665375202894Z" fill="#c0c0c0" stroke="#c0c0c0"/><path d="M516.0576172638685,254.84665375202894L405.8594700973481,398.5111874062568L562.1249733678997,416.7173491884023Z" fill="#acacac" stroke="#acacac"/><path d="M516.0576172638685,254.84665375202894L562.1249733678997,416.7173491884023L635.3406627941877,364.40375483594835Z" fill="#a8a8a8" stroke="#a8a8a8"/><path d="M516.0576172638685,254.84665375202894L635.3406627941877,364.40375483594835L668.6918576806784,270.8121263422072Z" fill="#acacac" stroke="#acacac"/><path d="M668.6918576806784,270.8121263422072L635.3406627941877,364.40375483594835L884.2357774078846,382.9695569816977Z" fill="#969696" stroke="#969696"/><path d="M668.6918576806784,270.8121263422072L884.2357774078846,382.9695569816977L827.2466365434229,235.06768707185984Z" fill="#969696" stroke="#969696"/><path d="M827.2466365434229,235.06768707185984L884.2357774078846,382.9695569816977L989.1810438316315,269.96614183299243Z" fill="#8a8a8a" stroke="#8a8a8a"/><path d="M989.1810438316315,269.96614183299243L884.2357774078846,382.9695569816977L941.2139646336436,411.024328423664Z" fill="#7b7b7b" stroke="#7b7b7b"/><path d="M989.1810438316315,269.96614183299243L941.2139646336436,411.024328423664L1081.9653297308832,378.1340412888676Z" fill="#747474" stroke="#747474"/><path d="M989.1810438316315,269.96614183299243L1081.9653297308832,378.1340412888676L1154.96505911462,215.08978170342743Z" fill="#777777" stroke="#777777"/><path d="M1154.96505911462,215.08978170342743L1081.9653297308832,378.1340412888676L1287.844552891329,353.0627187062055Z" fill="#666666" stroke="#666666"/><path d="M1154.96505911462,215.08978170342743L1287.844552891329,353.0627187062055L1267.2626900486648,201.8146686628461Z" fill="#6c6c6c" stroke="#6c6c6c"/><path d="M-30.001219818368554,396.8046901188791L-125.31747073866427,492.6195385493338L77.71953840740025,539.1113602370024Z" fill="#bcbcbc" stroke="#bcbcbc"/><path d="M-30.001219818368554,396.8046901188791L77.71953840740025,539.1113602370024L132.40807523019612,360.05997570231557Z" fill="#bfbfbf" stroke="#bfbfbf"/><path d="M132.40807523019612,360.05997570231557L77.71953840740025,539.1113602370024L196.48035552352667,550.4244563542306Z" fill="#aeaeae" stroke="#aeaeae"/><path d="M132.40807523019612,360.05997570231557L196.48035552352667,550.4244563542306L233.42080648988485,391.4124812465161Z" fill="#b5b5b5" stroke="#b5b5b5"/><path d="M233.42080648988485,391.4124812465161L196.48035552352667,550.4244563542306L320.0801077019423,543.7039293441921Z" fill="#a3a3a3" stroke="#a3a3a3"/><path d="M233.42080648988485,391.4124812465161L320.0801077019423,543.7039293441921L405.8594700973481,398.5111874062568Z" fill="#a9a9a9" stroke="#a9a9a9"/><path d="M405.8594700973481,398.5111874062568L320.0801077019423,543.7039293441921L515.2359861228615,550.8307784982026Z" fill="#949494" stroke="#949494"/><path d="M405.8594700973481,398.5111874062568L515.2359861228615,550.8307784982026L562.1249733678997,416.7173491884023Z" fill="#969696" stroke="#969696"/><path d="M562.1249733678997,416.7173491884023L515.2359861228615,550.8307784982026L733.1778177246451,523.9033032115549Z" fill="#828282" stroke="#828282"/><path d="M562.1249733678997,416.7173491884023L733.1778177246451,523.9033032115549L635.3406627941877,364.40375483594835Z" fill="#8b8b8b" stroke="#8b8b8b"/><path d="M635.3406627941877,364.40375483594835L733.1778177246451,523.9033032115549L856.0927895922214,472.9053885675967Z" fill="#7c7c7c" stroke="#7c7c7c"/><path d="M635.3406627941877,364.40375483594835L856.0927895922214,472.9053885675967L884.2357774078846,382.9695569816977Z" fill="#818181" stroke="#818181"/><path d="M884.2357774078846,382.9695569816977L856.0927895922214,472.9053885675967L941.2139646336436,411.024328423664Z" fill="#717171" stroke="#717171"/><path d="M941.2139646336436,411.024328423664L856.0927895922214,472.9053885675967L1022.3088377807289,490.3700037114322Z" fill="#636363" stroke="#636363"/><path d="M941.2139646336436,411.024328423664L1022.3088377807289,490.3700037114322L1081.9653297308832,378.1340412888676Z" fill="#626262" stroke="#626262"/><path d="M1081.9653297308832,378.1340412888676L1022.3088377807289,490.3700037114322L1107.4578447639942,482.71523150615394Z" fill="#565656" stroke="#565656"/><path d="M1081.9653297308832,378.1340412888676L1107.4578447639942,482.71523150615394L1267.871999675408,474.5876448042691Z" fill="#4d4d4d" stroke="#4d4d4d"/><path d="M1081.9653297308832,378.1340412888676L1267.871999675408,474.5876448042691L1287.844552891329,353.0627187062055Z" fill="#505050" stroke="#505050"/><path d="M1287.844552891329,353.0627187062055L1267.871999675408,474.5876448042691L1288.733362192288,699.6197520475835Z" fill="#373737" stroke="#373737"/><path d="M-125.31747073866427,492.6195385493338L-129.654474388808,724.0929022338241L22.046643225476146,635.1204054895788Z" fill="#9e9e9e" stroke="#9e9e9e"/><path d="M-125.31747073866427,492.6195385493338L22.046643225476146,635.1204054895788L77.71953840740025,539.1113602370024Z" fill="#a8a8a8" stroke="#a8a8a8"/><path d="M77.71953840740025,539.1113602370024L22.046643225476146,635.1204054895788L196.48035552352667,550.4244563542306Z" fill="#9c9c9c" stroke="#9c9c9c"/><path d="M196.48035552352667,550.4244563542306L22.046643225476146,635.1204054895788L252.94454835355282,696.3078369665891Z" fill="#8c8c8c" stroke="#8c8c8c"/><path d="M196.48035552352667,550.4244563542306L252.94454835355282,696.3078369665891L326.8428844772279,656.1328334547579Z" fill="#838383" stroke="#838383"/><path d="M196.48035552352667,550.4244563542306L326.8428844772279,656.1328334547579L320.0801077019423,543.7039293441921Z" fill="#8c8c8c" stroke="#8c8c8c"/><path d="M320.0801077019423,543.7039293441921L326.8428844772279,656.1328334547579L515.2359861228615,550.8307784982026Z" fill="#838383" stroke="#838383"/><path d="M515.2359861228615,550.8307784982026L326.8428844772279,656.1328334547579L528.1851645279676,671.4294775016606Z" fill="#737373" stroke="#737373"/><path d="M515.2359861228615,550.8307784982026L528.1851645279676,671.4294775016606L727.8362342622131,626.2057627178729Z" fill="#686868" stroke="#686868"/><path d="M515.2359861228615,550.8307784982026L727.8362342622131,626.2057627178729L733.1778177246451,523.9033032115549Z" fill="#6c6c6c" stroke="#6c6c6c"/><path d="M733.1778177246451,523.9033032115549L727.8362342622131,626.2057627178729L811.2405156623572,634.7747805062681Z" fill="#5a5a5a" stroke="#5a5a5a"/><path d="M733.1778177246451,523.9033032115549L811.2405156623572,634.7747805062681L856.0927895922214,472.9053885675967Z" fill="#606060" stroke="#606060"/><path d="M856.0927895922214,472.9053885675967L811.2405156623572,634.7747805062681L930.1482706423849,672.2225103992969Z" fill="#4e4e4e" stroke="#4e4e4e"/><path d="M856.0927895922214,472.9053885675967L930.1482706423849,672.2225103992969L1022.3088377807289,490.3700037114322Z" fill="#505050" stroke="#505050"/><path d="M1022.3088377807289,490.3700037114322L930.1482706423849,672.2225103992969L1132.1294387429953,626.3051205407828Z" fill="#3a3a3a" stroke="#3a3a3a"/><path d="M1022.3088377807289,490.3700037114322L1132.1294387429953,626.3051205407828L1107.4578447639942,482.71523150615394Z" fill="#414141" stroke="#414141"/><path d="M1107.4578447639942,482.71523150615394L1132.1294387429953,626.3051205407828L1267.871999675408,474.5876448042691Z" fill="#393939" stroke="#393939"/><path d="M1267.871999675408,474.5876448042691L1132.1294387429953,626.3051205407828L1288.733362192288,699.6197520475835Z" fill="#222222" stroke="#222222"/><path d="M-129.654474388808,724.0929022338241L-80.03766509704292,809.8058103583753L22.046643225476146,635.1204054895788Z" fill="#868686" stroke="#868686"/><path d="M22.046643225476146,635.1204054895788L-80.03766509704292,809.8058103583753L95.22755985148251,824.0856876969337Z" fill="#7b7b7b" stroke="#7b7b7b"/><path d="M22.046643225476146,635.1204054895788L95.22755985148251,824.0856876969337L252.94454835355282,696.3078369665891Z" fill="#7a7a7a" stroke="#7a7a7a"/><path d="M252.94454835355282,696.3078369665891L95.22755985148251,824.0856876969337L197.93739292770624,839.4909381866455Z" fill="#6e6e6e" stroke="#6e6e6e"/><path d="M252.94454835355282,696.3078369665891L197.93739292770624,839.4909381866455L424.16102930903435,829.3041137326509Z" fill="#666666" stroke="#666666"/><path d="M252.94454835355282,696.3078369665891L424.16102930903435,829.3041137326509L326.8428844772279,656.1328334547579Z" fill="#676767" stroke="#676767"/><path d="M326.8428844772279,656.1328334547579L424.16102930903435,829.3041137326509L528.1851645279676,671.4294775016606Z" fill="#606060" stroke="#606060"/><path d="M528.1851645279676,671.4294775016606L424.16102930903435,829.3041137326509L583.7627643160522,844.7386444173753Z" fill="#525252" stroke="#525252"/><path d="M528.1851645279676,671.4294775016606L583.7627643160522,844.7386444173753L641.1897988524288,789.3405092507601Z" fill="#4b4b4b" stroke="#4b4b4b"/><path d="M528.1851645279676,671.4294775016606L641.1897988524288,789.3405092507601L727.8362342622131,626.2057627178729Z" fill="#515151" stroke="#515151"/><path d="M727.8362342622131,626.2057627178729L641.1897988524288,789.3405092507601L820.9602015092969,788.0779496021569Z" fill="#3d3d3d" stroke="#3d3d3d"/><path d="M727.8362342622131,626.2057627178729L820.9602015092969,788.0779496021569L811.2405156623572,634.7747805062681Z" fill="#424242" stroke="#424242"/><path d="M811.2405156623572,634.7747805062681L820.9602015092969,788.0779496021569L930.1482706423849,672.2225103992969Z" fill="#373737" stroke="#373737"/><path d="M930.1482706423849,672.2225103992969L820.9602015092969,788.0779496021569L932.6453788205981,861.0318836476654Z" fill="#272727" stroke="#272727"/><path d="M930.1482706423849,672.2225103992969L932.6453788205981,861.0318836476654L1093.411669805646,819.4837890565395Z" fill="#1c1c1c" stroke="#1c1c1c"/><path d="M930.1482706423849,672.2225103992969L1093.411669805646,819.4837890565395L1132.1294387429953,626.3051205407828Z" fill="#1e1e1e" stroke="#1e1e1e"/><path d="M1132.1294387429953,626.3051205407828L1093.411669805646,819.4837890565395L1288.733362192288,699.6197520475835Z" fill="#0e0e0e" stroke="#0e0e0e"/><path d="M1288.733362192288,699.6197520475835L1093.411669805646,819.4837890565395L1271.3703287020326,851.2666850164533Z" fill="#010101" stroke="#010101"/><path d="M-80.03766509704292,809.8058103583753L197.93739292770624,839.4909381866455L95.22755985148251,824.0856876969337Z" fill="#767676" stroke="#767676"/><path d="M197.93739292770624,839.4909381866455L932.6453788205981,861.0318836476654L583.7627643160522,844.7386444173753Z" fill="#4c4c4c" stroke="#4c4c4c"/><path d="M197.93739292770624,839.4909381866455L583.7627643160522,844.7386444173753L424.16102930903435,829.3041137326509Z" fill="#5c5c5c" stroke="#5c5c5c"/><path d="M583.7627643160522,844.7386444173753L932.6453788205981,861.0318836476654L820.9602015092969,788.0779496021569Z" fill="#343434" stroke="#343434"/><path d="M583.7627643160522,844.7386444173753L820.9602015092969,788.0779496021569L641.1897988524288,789.3405092507601Z" fill="#404040" stroke="#404040"/><path d="M932.6453788205981,861.0318836476654L1271.3703287020326,851.2666850164533L1093.411669805646,819.4837890565395Z" fill="#0f0f0f" stroke="#0f0f0f"/></g></svg>